<svg xmlns="http://www.w3.org/2000/svg" viewBox="0 0 100.19 114.68"><defs><style>.cls-1{fill:#17355f;}</style></defs><g id="Layer_2" data-name="Layer 2"><g id="Layer_1-2" data-name="Layer 1"><polygon class="cls-1" points="74.45 112.72 69.97 110.38 93.48 65.16 50.1 39.76 6.71 65.16 30.22 110.38 25.74 112.72 0 63.23 50.1 33.9 100.19 63.23 74.45 112.72"/><polygon class="cls-1" points="89.58 79.26 50.1 56.15 10.93 79.08 8.37 74.71 50.1 50.28 92.14 74.89 89.58 79.26"/><path class="cls-1" d="M75,114.68c-6.88,0-10.47-2.21-13.64-4.17-3-1.83-5.55-3.42-11-3.42s-8,1.59-11,3.42c-3.17,2-6.76,4.17-13.63,4.17s-10.47-2.21-13.64-4.17c-3-1.83-5.55-3.42-11-3.42V102c6.88,0,10.47,2.22,13.64,4.17,3,1.84,5.55,3.42,11,3.42s8-1.58,11-3.42c3.17-2,6.77-4.17,13.64-4.17S60.79,104.25,64,106.2c3,1.84,5.55,3.42,11,3.42s8-1.58,11-3.42c3.18-2,6.77-4.17,13.64-4.17v5.06c-5.44,0-8,1.59-11,3.42A23,23,0,0,1,75,114.68Z"/><rect class="cls-1" x="48.41" y="75.93" width="5.06" height="27.82"/><rect class="cls-1" x="48.41" y="36.72" width="5.06" height="18.97"/><polygon class="cls-1" points="78.85 51.23 73.79 51.23 73.79 26.82 26.86 26.82 26.86 51.23 21.8 51.23 21.8 21.76 78.85 21.76 78.85 51.23"/><polygon class="cls-1" points="58.35 26.74 53.3 26.74 53.3 5.06 47.35 5.06 47.35 26.74 42.29 26.74 42.29 0 58.35 0 58.35 26.74"/></g></g></svg>