<svg xmlns="http://www.w3.org/2000/svg" viewBox="0 0 193 193"><defs><style>.cls-1{fill:#c2a380;}.cls-2{fill:#fff;}</style></defs><g id="Layer_2" data-name="Layer 2"><g id="Layer_1-2" data-name="Layer 1"><circle class="cls-1" cx="96.5" cy="96.5" r="96.5"/><path class="cls-2" d="M121.84,92.38s0,0,0-.07A2,2,0,0,1,124.35,91,36.58,36.58,0,0,0,170.4,66.64a36.33,36.33,0,0,0-26.1,3,2,2,0,1,1-1.83-3.51,40.23,40.23,0,0,1,30.95-2.71,2,2,0,0,1,1.32,2.36A40.54,40.54,0,0,1,123.15,94.8,2,2,0,0,1,121.84,92.38Z"/><path class="cls-2" d="M117.62,62a40.61,40.61,0,0,1,20.35-25,2,2,0,0,1,2.6.73,40.51,40.51,0,0,1-15.94,57A2,2,0,0,1,122,94,40.66,40.66,0,0,1,117.62,62Zm20.51-20.6A36.65,36.65,0,0,0,121.44,63a36.16,36.16,0,0,0,3,27.21,36.15,36.15,0,0,0,16.7-21.69A36.62,36.62,0,0,0,138.13,41.37Z"/><path class="cls-2" d="M140.61,70.75Z"/><path class="cls-2" d="M119,127a2,2,0,0,1-2-1.94l-.13-5.5v-.05a5.14,5.14,0,0,1,4.44-5.07l12.39-1.69h.06a.88.88,0,0,0,.53-.26l.1-.1,8.73-7.83c.16-.14.35-.34.35-.53a1.29,1.29,0,0,0-.27-.69.27.27,0,0,1-.07-.08,1.44,1.44,0,0,0-.66-.44.79.79,0,0,0-.15.11L137,107.74a5.16,5.16,0,0,1-3.17,1.3l-22.17,1.1-.22,0a3.9,3.9,0,0,0-2.22,2.1,1.22,1.22,0,0,0-.14.56v12a2,2,0,0,1-4,0v-12a5.25,5.25,0,0,1,.59-2.39,7.76,7.76,0,0,1,4.62-4.07,5.75,5.75,0,0,1,1.15-.19l22.17-1.1a1.13,1.13,0,0,0,.71-.3l5.39-4.83a4.11,4.11,0,0,1,3.1-1.11,5.22,5.22,0,0,1,3.39,1.84,5.11,5.11,0,0,1,1.27,3.51,4.64,4.64,0,0,1-1.66,3.29l-8.69,7.79a4.76,4.76,0,0,1-2.86,1.39l-12.38,1.69a1.15,1.15,0,0,0-1,1.13L121,125a2,2,0,0,1-1.94,2Z"/><path class="cls-2" d="M109.31,155H45.8a6.88,6.88,0,0,1-6.87-6.87v-12a28.58,28.58,0,0,1,.53-5.08C42,119.38,52.66,110.9,64.94,110.9H84.27A26.31,26.31,0,0,1,106.46,123H122.1a2,2,0,0,1,2,1.92c.07,2.44.39,14.69,0,16.81a35,35,0,0,1-1.81,5.48,1.51,1.51,0,0,1-.11.22A14.91,14.91,0,0,1,109.31,155ZM64.94,114.87a22,22,0,0,0-21.6,17,24.53,24.53,0,0,0-.45,4.26v12A2.92,2.92,0,0,0,45.8,151h63.51a10.92,10.92,0,0,0,9.31-5.46,31.61,31.61,0,0,0,1.54-4.6c.2-1,.16-7.6,0-14H108.49a24.23,24.23,0,0,1,1.25,4.09,60.2,60.2,0,0,1,1.39,11.85,2,2,0,0,1-4-.07,57.31,57.31,0,0,0-1.29-10.94,20.65,20.65,0,0,0-2.2-5.84l-.12-.19a22.24,22.24,0,0,0-19.28-11Z"/><path class="cls-2" d="M74.6,122.09c-6.42,0-11.64-3.83-11.64-8.54v-4.27a2,2,0,0,1,4,0v4.27c0,2.43,3.59,4.57,7.68,4.57s7.69-2.14,7.69-4.57v-4.27a2,2,0,1,1,4,0v4.27C86.25,118.26,81,122.09,74.6,122.09Z"/><path class="cls-2" d="M74.13,113.06A22.9,22.9,0,0,1,52,95.33a10.24,10.24,0,0,1-7.59-15,2,2,0,0,1,3.5,1.88,6.14,6.14,0,0,0-.74,2.94,6.26,6.26,0,0,0,6.26,6.26h.17a2,2,0,0,1,2,1.69,18.75,18.75,0,0,0,37.08,0,2,2,0,0,1,2-1.69h.18a6.26,6.26,0,0,0,6.24-6.26,6.13,6.13,0,0,0-.73-2.94,2,2,0,1,1,3.49-1.87,10.22,10.22,0,0,1-7.59,14.94A22.88,22.88,0,0,1,74.13,113.06Z"/><path class="cls-2" d="M106.77,83.3H42.61a5.89,5.89,0,0,1-5.89-5.16,5.75,5.75,0,0,1,5.71-6.33l10-.09a22.23,22.23,0,0,1,44.3.09h9.84A5.9,5.9,0,0,1,112.49,77a5.75,5.75,0,0,1-5.72,6.33ZM74.6,55.41A18.29,18.29,0,0,0,56.34,73.68a2,2,0,0,1-2,2l-11.92.12a1.78,1.78,0,0,0-1.79,2,1.9,1.9,0,0,0,2,1.6h64.16a1.8,1.8,0,0,0,1.32-.59,1.71,1.71,0,0,0,.45-1.38,1.89,1.89,0,0,0-1.94-1.59H94.85a2,2,0,0,1-2-2v-.12A18.29,18.29,0,0,0,74.6,55.41Z"/></g></g></svg>