<svg xmlns="http://www.w3.org/2000/svg" viewBox="0 0 193 193"><defs><style>.cls-1{fill:#c2a380;}.cls-2{fill:#fff;}</style></defs><g id="Layer_2" data-name="Layer 2"><g id="Layer_1-2" data-name="Layer 1"><circle class="cls-1" cx="96.5" cy="96.5" r="96.5"/><polygon class="cls-2" points="136.97 82.1 133.46 82.1 133.46 67.04 126.45 60.03 126.45 40.01 129.96 40.01 129.96 58.58 136.97 65.59 136.97 82.1"/><polygon class="cls-2" points="143.99 82.1 140.48 82.1 140.48 65.59 147.49 58.58 147.49 40.01 151 40.01 151 60.03 143.99 67.04 143.99 82.1"/><rect class="cls-2" x="140.48" y="40.01" width="3.51" height="19.29"/><rect class="cls-2" x="133.46" y="40.01" width="3.51" height="19.29"/><path class="cls-2" d="M145.74,148.74h-14v-15.5L130,128V101.11l1.75-5.26V80.35h14v15.5l1.75,5.26V128l-1.75,5.26Zm-10.52-3.51h7V132.67l1.76-5.26V101.68l-1.76-5.27V83.85h-7V96.41l-1.76,5.27v25.73l1.76,5.26Z"/><rect class="cls-2" x="131.71" y="106.65" width="14.03" height="3.51"/><rect class="cls-2" x="131.71" y="113.67" width="14.03" height="3.51"/><rect class="cls-2" x="131.71" y="120.68" width="14.03" height="3.51"/><path class="cls-2" d="M61.56,148.74h-14v-15.5L45.78,128V101.11l1.75-5.26V80.35h14v15.5l1.75,5.26V128l-1.75,5.26ZM51,145.23h7V132.67l1.76-5.26V101.68l-1.76-5.27V83.85H51V96.41l-1.76,5.27v25.73L51,132.67Z"/><rect class="cls-2" x="47.53" y="106.65" width="14.03" height="3.51"/><rect class="cls-2" x="47.53" y="113.67" width="14.03" height="3.51"/><rect class="cls-2" x="47.53" y="120.68" width="14.03" height="3.51"/><path class="cls-2" d="M59.81,82.1H56.3V68l1.17-.41a8.79,8.79,0,0,0,5.84-8.26c0-5.52-4.5-15.78-8.76-15.78S45.78,53.78,45.78,59.3a8.79,8.79,0,0,0,5.84,8.26l1.17.41V82.1H49.28V70.38a12.29,12.29,0,0,1-7-11.08C42.27,52.7,47.45,40,54.55,40S66.82,52.7,66.82,59.3a12.29,12.29,0,0,1-7,11.08Z"/><path class="cls-2" d="M54,64.67l-1.17-.42a5.29,5.29,0,0,1-3.51-5c0-3.18,2-8.31,3.86-10.77L56,50.62c-1.43,1.92-3.17,6.31-3.17,8.68A1.79,1.79,0,0,0,54,61l1.17.41Z"/><path class="cls-2" d="M96.63,125.94A31.57,31.57,0,1,1,128.2,94.38,31.6,31.6,0,0,1,96.63,125.94Zm0-59.62a28.06,28.06,0,1,0,28.06,28.06A28.08,28.08,0,0,0,96.63,66.32Z"/><path class="cls-2" d="M96.63,110.16a15.79,15.79,0,1,1,15.79-15.78A15.8,15.8,0,0,1,96.63,110.16Zm0-28.06a12.28,12.28,0,1,0,12.28,12.28A12.29,12.29,0,0,0,96.63,82.1Z"/><path class="cls-2" d="M96.63,103.14v-3.5a5.25,5.25,0,0,0,4.56-7.89l3-1.76a8.77,8.77,0,0,1-7.6,13.15Z"/><path class="cls-2" d="M99.26,89.82a5.24,5.24,0,0,0-2.63-.71v-3.5A8.72,8.72,0,0,1,101,86.78Z"/></g></g></svg>