<svg xmlns="http://www.w3.org/2000/svg" xmlns:xlink="http://www.w3.org/1999/xlink" viewBox="0 0 193 193"><defs><style>.cls-1,.cls-5{fill:none;}.cls-2{fill:#c2a380;}.cls-3{fill:#fff;}.cls-4{clip-path:url(#clip-path);}.cls-5{stroke:#fff;stroke-linecap:round;stroke-linejoin:round;stroke-width:2px;}</style><clipPath id="clip-path"><path class="cls-1" d="M49.33,101.73s21.1,10.64,22.2,10.12,13.48.28,13.48.28l23.61-5.34,23.88-8.15,8.43-1.4-2.76-45.11L113.86,24.64,66.29,25.7,44.09,61.64Z"/></clipPath></defs><g id="Layer_2" data-name="Layer 2"><g id="Layer_1-2" data-name="Layer 1"><circle class="cls-2" cx="96.5" cy="96.5" r="96.5"/><path class="cls-3" d="M33.84,101.86c-.18,1.76-.83,4.44-3.1,5.28a17.11,17.11,0,0,1-4.4.93c-.43-.38-2.62-2.56.45-5.63a5.25,5.25,0,0,1,7-.56Z"/><path class="cls-3" d="M93.67,148.93c-2.65,0-5.31-.09-8-.29-11.7-.87-22.16-3.51-31.08-7.85a60.18,60.18,0,0,1-18.39-13.61c-7.75-8.53-10.35-16.61-10.86-18.41A4.54,4.54,0,0,1,24,105.88,5.55,5.55,0,0,1,26,101.61a6.32,6.32,0,0,1,8-1c6.59-2,14.22-1.48,30.74,6.42,16.06,7.67,31.28,3,54.78-5.34,18.23-6.44,27.77-5,31.28-4,.73-5.11,3.77-11.74,8.57-13,2.89-.75,6.37,1.1,8.66,3.09,2.11,1.83,4.26,4.68,4,7.19-.61,5.39-8.29,9.27-10.89,10.44.78,7.84-2.22,15.61-8.72,22.52s-16.13,12.59-27.76,16.33A101.82,101.82,0,0,1,93.67,148.93ZM30.53,102a4,4,0,0,0-2.91,1.32,3.4,3.4,0,0,0-1.25,2.43,2.31,2.31,0,0,0,.77,1.49,1.09,1.09,0,0,1,.42.65c0,.08,2.24,8.8,10.5,17.84,7.62,8.34,22.1,18.69,47.81,20.59,26.11,1.93,51.54-5.91,64.77-20,6.24-6.64,9-14.07,8-21.48a1.18,1.18,0,0,1,.74-1.26c2.69-1.07,9.78-4.75,10.26-8.87.14-1.27-1.16-3.39-3.18-5.13-2.31-2-4.86-3-6.51-2.59-3.64,1-6.73,7.46-7,12.41a1.17,1.17,0,0,1-.59,1,1.18,1.18,0,0,1-1.14,0c-.14-.07-8.82-4.3-31,3.53-24.07,8.51-39.68,13.32-56.59,5.24C47.41,101.35,40.31,101,34.13,103a1.17,1.17,0,0,1-1.08-.19A4.46,4.46,0,0,0,30.53,102Z"/><path class="cls-3" d="M39,110.13a73.1,73.1,0,0,0,12.64,7,94,94,0,0,0,9,3.45,100.35,100.35,0,0,0,35.69,4.81,97.69,97.69,0,0,0,21.41-3.43,100.47,100.47,0,0,0,13.64-4.81c2.16-.94,4.34-2,6.52-3.12a122.81,122.81,0,0,0,14.29-8.87.33.33,0,1,0-.37-.54,127.62,127.62,0,0,1-14.52,8.21q-3.3,1.59-6.51,2.92a110.67,110.67,0,0,1-13.48,4.64,99.29,99.29,0,0,1-21.06,3.35,102,102,0,0,1-35.16-4.56c-3.33-1-6.33-2.12-9-3.18a81.84,81.84,0,0,1-12.8-6.3.3.3,0,0,0-.4.08A.29.29,0,0,0,39,110.13Z"/><path class="cls-3" d="M168.85,96.72a6.16,6.16,0,0,1-1.7-.27,13.44,13.44,0,0,1-4.64-2.66c-3.41-2.88-4.89-6.34-3.45-8.05h0c.77-.9,2.14-1.12,3.87-.61a13.71,13.71,0,0,1,4.65,2.66A13.52,13.52,0,0,1,171,91.93c.8,1.62.82,3,.05,3.91A2.69,2.69,0,0,1,168.85,96.72Zm-8.43-9.83c-.56.65.45,3.2,3.23,5.55a12,12,0,0,0,4,2.31c1,.28,1.74.26,2,0s.15-1.1-.29-2a13.16,13.16,0,0,0-6.95-5.88c-1-.28-1.75-.26-2,.06Z"/><ellipse class="cls-3" cx="148.15" cy="103.78" rx="2.37" ry="1.9" transform="translate(-30.95 129.12) rotate(-43.06)"/><ellipse class="cls-3" cx="144.36" cy="106.71" rx="1.41" ry="1.13" transform="translate(-13.92 191.41) rotate(-64.62)"/><ellipse class="cls-3" cx="142.14" cy="103.78" rx="1.39" ry="1.73" transform="translate(-19.4 33.93) rotate(-12.75)"/><g class="cls-4"><path class="cls-3" d="M95.23,130.3a26.8,26.8,0,0,0,9.45-2.09c1.54-.59,3-1.25,4.56-1.93,1.32-.59,2.67-1.15,4-1.83a36.54,36.54,0,0,0,9.08-6.84A37.35,37.35,0,0,0,131.89,99a35.86,35.86,0,0,0-1.31-19.45A24.53,24.53,0,0,0,119.1,66c-6.5-3.29-14-2.94-20.85-.81-1,.33-2.08.7-3.11,1.1h.54C88.85,63.63,81,62.37,74,65.05a23.5,23.5,0,0,0-12.78,12.3,34.7,34.7,0,0,0-2.68,19,38,38,0,0,0,8.14,19.13,35.58,35.58,0,0,0,8.3,7.42,54.4,54.4,0,0,0,6.25,3.36,44.39,44.39,0,0,0,9.25,3.51,21.51,21.51,0,0,0,4.8.58,1,1,0,0,0,0-2,25.45,25.45,0,0,1-9.39-2.17,71.7,71.7,0,0,1-7.66-3.66,34.2,34.2,0,0,1-8.55-6.63,35.49,35.49,0,0,1-8.84-17.69A33.85,33.85,0,0,1,62.2,80a26,26,0,0,1,4.22-7.24A19.92,19.92,0,0,1,73,67.63a21.67,21.67,0,0,1,8.65-2.06,32.1,32.1,0,0,1,10.94,1.75l1.41.49a2.76,2.76,0,0,0,1.82.38c1-.33,2.05-.76,3.1-1.09a36.77,36.77,0,0,1,5.68-1.29,24.51,24.51,0,0,1,9.62.49A20.84,20.84,0,0,1,127,76.56,31.4,31.4,0,0,1,130.56,94a36.34,36.34,0,0,1-6.49,18.29,34,34,0,0,1-7.2,7.42,35.74,35.74,0,0,1-4.69,3c-1.22.65-2.5,1.18-3.75,1.75-1.48.66-3,1.31-4.49,1.89a24.94,24.94,0,0,1-8.71,1.94A1,1,0,0,0,95.23,130.3Z"/><path class="cls-5" d="M83.39,69.28C64.67,71,60.68,95.35,70.73,108.1c3.11,4,8.11,8.6,12.66,10.78"/><path class="cls-3" d="M102.5,42l3.83,1.91s-4.46.39-8.81,21.3c0,0-1.88-14.17,5-23.21m0-2a2,2,0,0,0-1.6.79c-7.26,9.59-5.44,24.07-5.36,24.68a2,2,0,0,0,1.91,1.74h.07a2,2,0,0,0,2-1.59c3.5-16.82,7-19.51,7.37-19.77a2,2,0,0,0,1.45-1.56,2,2,0,0,0-1.07-2.16l-3.84-1.92a2,2,0,0,0-.89-.21Z"/><path class="cls-5" d="M77.19,41S71,63.6,94.85,65.11C94.85,65.11,101.88,43.65,77.19,41Z"/><line class="cls-5" x1="81.34" y1="46.69" x2="94.85" y2="65.11"/></g></g></g></svg>