<svg xmlns="http://www.w3.org/2000/svg" viewBox="0 0 193 193"><defs><style>.cls-1{fill:#c2a380;}.cls-2{fill:#fff;}</style></defs><g id="Layer_2" data-name="Layer 2"><g id="Layer_1-2" data-name="Layer 1"><circle class="cls-1" cx="96.5" cy="96.5" r="96.5"/><path class="cls-2" d="M134.62,146.08c1.73,2,5.86,3.09,8.37,2.39a.36.36,0,0,0-.09-.71,23.07,23.07,0,0,1-4.46-.3,32,32,0,0,1-3.76-1.49c-.06,0-.1.07-.06.11Z"/><path class="cls-2" d="M135.2,144.8c2.19,1.5,5.37,2.75,8.05,2.06a.28.28,0,0,0-.08-.55,31.86,31.86,0,0,1-4-.31,13.55,13.55,0,0,1-3.78-1.49.17.17,0,0,0-.17.29Z"/><path class="cls-2" d="M135.64,142.85a12.42,12.42,0,0,0,7.23,2.26.35.35,0,0,0,0-.69,20,20,0,0,1-7.16-1.74c-.11,0-.15.11-.07.17Z"/><path class="cls-2" d="M135.89,140.83a11.29,11.29,0,0,0,7.85,2.65.41.41,0,0,0,0-.81,20.86,20.86,0,0,1-7.66-2.09c-.15-.08-.33.12-.19.25Z"/><path class="cls-2" d="M136.44,138.56c2,1.86,5.54,3.19,8.27,2.44a.29.29,0,0,0-.08-.56,22.62,22.62,0,0,1-4.18-.36,14,14,0,0,1-3.82-1.77.16.16,0,0,0-.19.25Z"/><path class="cls-2" d="M137.38,137.07c1.9,1.36,4.94,2.59,7.3,2,.32-.08.22-.51-.08-.54a23.15,23.15,0,0,1-3.61-.38,18.4,18.4,0,0,1-3.44-1.33.16.16,0,0,0-.17.28Z"/><path class="cls-2" d="M137.84,134.58c1.9,1.86,5.11,3.32,7.76,2.34a.33.33,0,0,0-.18-.64c-2.85.45-5-.4-7.37-2a.18.18,0,0,0-.21.28Z"/><path class="cls-2" d="M138.14,132.5a8.46,8.46,0,0,0,8.31,2.69.38.38,0,0,0-.1-.73,14,14,0,0,1-4.23-.23,13.38,13.38,0,0,1-3.78-1.93c-.12-.07-.29.08-.2.2Z"/><path class="cls-2" d="M139,130.46c1.57,2.07,5.27,3.91,7.78,2.61.35-.18.1-.68-.25-.61-2.81.59-5.16-.41-7.36-2.13-.08-.06-.25,0-.17.13Z"/><path class="cls-2" d="M139.3,129.11c2.08,1.81,5.87,3.32,8.59,2.33.31-.11.3-.66-.08-.62-3.21.34-5.52-.68-8.41-1.88-.09,0-.17.11-.1.17Z"/><path class="cls-2" d="M140.44,127.65a10.26,10.26,0,0,0,7.72,2.08c.42-.09.31-.71-.09-.73a18.32,18.32,0,0,1-7.39-1.66c-.18-.08-.42.16-.24.31Z"/><path class="cls-2" d="M141.32,126c2,1.34,5.23,2.53,7.67,1.82a.32.32,0,0,0-.08-.63,18.14,18.14,0,0,1-7.35-1.6.24.24,0,0,0-.24.41Z"/><path class="cls-2" d="M141.24,123.08c1.51,2.26,6.34,3.58,8.77,2.35a.33.33,0,0,0-.17-.6,14.19,14.19,0,0,1-4.41-.06,13.54,13.54,0,0,1-4-1.85.12.12,0,0,0-.16.16Z"/><path class="cls-2" d="M141.85,121c1.21,2.31,6.11,3.61,8.39,2.52.3-.14.12-.56-.16-.58a24.58,24.58,0,0,1-4.28-.23,15.18,15.18,0,0,1-3.83-1.83.09.09,0,0,0-.12.12Z"/><path class="cls-2" d="M143,119.64a8.57,8.57,0,0,0,7.16,2.46.35.35,0,0,0,0-.66c-2.5-.44-4.79-.55-6.93-2.1-.18-.14-.36.14-.23.3Z"/><path class="cls-2" d="M123.17,164.85a46.76,46.76,0,0,0,4.65-2.69,20.64,20.64,0,0,0,4-2.83.28.28,0,0,0-.34-.44,42.31,42.31,0,0,0-4.23,2.85c-1.42.95-2.9,1.79-4.32,2.74a.22.22,0,0,0,.22.37Z"/><path class="cls-2" d="M127.35,169.54c.89.11,1.26,1.23,2.17,1.23s2.35-1.4,3.13-1.94c1.52-1.07,4.09-2.63,2.83-4.82-.13-.22-.52-.08-.43.18.85,2.46-2.71,4.14-4.32,5.34-.92.67-1.31.85-2.37.3-.41-.21-.53-.37-1-.37-.06,0-.06.07,0,.08Z"/><path class="cls-2" d="M147.4,48.47a10.69,10.69,0,0,0,2.36-2.34,6.93,6.93,0,0,0,1.57-2.74c.06-.37-.37-.72-.68-.4a19,19,0,0,0-1.51,2.46c-.62.93-1.37,1.74-2,2.62-.17.21,0,.58.31.4Z"/><path class="cls-2" d="M142.73,47.18a12.06,12.06,0,0,0,7.63-6.89c.21-.49-.49-.92-.73-.42a14.82,14.82,0,0,1-7.07,6.89c-.24.12-.07.48.17.42Z"/><path class="cls-2" d="M134.51,31a75.15,75.15,0,0,1,12.37.29c.59.06.74-.95.14-1.05a33.54,33.54,0,0,0-12.59.22.28.28,0,0,0,.08.54Z"/><path class="cls-2" d="M136.83,32.35a24.13,24.13,0,0,0,6.41-.08c.34-.07.24-.57-.08-.59a24.3,24.3,0,0,0-6.37.42c-.15,0-.1.24,0,.25Z"/><path class="cls-2" d="M137.4,34c2.08.12,4.25-.15,6.34-.19a.33.33,0,0,0,0-.66,20.2,20.2,0,0,0-6.38.59c-.15,0-.11.25,0,.26Z"/><path class="cls-2" d="M138.27,36.06a31.24,31.24,0,0,0,6.41-.53c.3-.06.31-.57,0-.61-2.08-.3-4.33.46-6.41.61a.27.27,0,0,0,0,.53Z"/><path class="cls-2" d="M138.85,37.71a22.07,22.07,0,0,0,3.25-.19,21.06,21.06,0,0,0,2.86-.34c.34-.08.23-.54-.07-.57-1.92-.19-4.2.42-6.09.76-.19,0-.14.33,0,.34Z"/><path class="cls-2" d="M139.42,39.66a18.57,18.57,0,0,0,2.88-.26,10.05,10.05,0,0,0,3-.46c.26-.12.22-.61-.08-.65a10.41,10.41,0,0,0-3,.49,19.5,19.5,0,0,0-2.82.64c-.12,0-.11.24,0,.24Z"/><path class="cls-2" d="M139.68,41.1a13.85,13.85,0,0,0,6.16-.65c.27-.1.27-.59-.07-.55-1,.1-1.91.34-2.86.5s-2.17.23-3.23.44c-.12,0-.13.24,0,.26Z"/><path class="cls-2" d="M140.57,42.65a17.43,17.43,0,0,0,6.13-.81c.35-.12.31-.72-.1-.68-2,.19-4,.84-6,1.05a.22.22,0,0,0,0,.44Z"/><path class="cls-2" d="M136.56,25.39a11.41,11.41,0,0,0-.88,3.37,8.82,8.82,0,0,0,.24,1.7,38.34,38.34,0,0,0,1.57,5.23c.84,2.35,1.84,4.61,2.83,6.89.15.35.66,0,.51-.3-.86-2-1.74-4.48-2.52-6.64-.56-1.54-1.1-3.1-1.52-4.69a11.55,11.55,0,0,1-.42-2.09c-.08-1.18.47-2.26.51-3.43,0-.18-.27-.21-.32,0Z"/><path class="cls-2" d="M134.61,24.21c-2.91,4.85,0,10.72,1.75,15.5.73,2,1.36,4.53,3,6.08a9.47,9.47,0,0,0,3.59,1.75,15.35,15.35,0,0,0,4.09,1.3,1,1,0,0,0,.49-1.8,33.14,33.14,0,0,0-3.32-1.24c-1.24-.46-2.79-.77-3.7-1.78-1.23-1.38-1.72-3.61-2.36-5.28-1.73-4.51-4.43-9.36-2.81-14.23.14-.42-.48-.66-.7-.3Z"/><path class="cls-2" d="M154,101c-1.17,4.72-2.49,9.41-3.62,14.14a1.38,1.38,0,0,0,2.66.74c1.39-4.66,2.51-9.41,3.68-14.13.44-1.76-2.28-2.51-2.72-.75Z"/><path class="cls-2" d="M156.77,93.93c-.57,2.17-1.11,4.34-1.65,6.52-.44,1.76,2.28,2.51,2.72.75.54-2.18,1.08-4.35,1.59-6.53a1.38,1.38,0,0,0-2.66-.74Z"/><path class="cls-2" d="M135,24.78c.82-.52,1.88-.15,2.73.15,1.17.41,2.3.89,3.49,1.27a14.66,14.66,0,0,1,3.24,1.07c1.32.79,1.56,2.32,1.9,3.7,1.43,5.77,3,11.51,4.42,17.26,2.58,10.11,5.07,20.22,6.35,30.59a30.18,30.18,0,0,1,.27,6.85,49.24,49.24,0,0,1-1.54,7.39c-.45,1.76,2.31,2.52,2.72.75a40.3,40.3,0,0,0,1.18-14.16c-.63-5.07-1.46-10.11-2.56-15.1-1.41-6.45-3.28-12.81-4.89-19.21-.8-3.16-1.59-6.33-2.39-9.5-.41-1.63-.81-3.27-1.23-4.89a13.46,13.46,0,0,0-1.29-3.77c-1.52-2.48-4.69-2.72-7.24-3.41-1.63-.43-4.54-1.28-5.64.53a.35.35,0,0,0,.48.48Z"/><path class="cls-2" d="M147.36,99.53c-1.29,4.57-2.62,9.18-3.7,13.81a1.39,1.39,0,0,0,2.67.74c1.43-4.53,2.56-9.21,3.67-13.82a1.37,1.37,0,0,0-2.64-.73Z"/><path class="cls-2" d="M149,91.26c-.6,2.48-1.29,4.94-2,7.4-.49,1.74,2.29,2.49,2.7.74.59-2.48,1.17-5,1.71-7.47.34-1.58-2-2.25-2.43-.67Z"/><path class="cls-2" d="M144.32,46.33c-.28,2.63.62,5.46,1.19,8s1.26,5.28,1.93,7.92a115.13,115.13,0,0,1,3.13,18.53,33.94,33.94,0,0,1-1,10.47c-.37,1.6,2.12,2.28,2.46.68A36.41,36.41,0,0,0,153.09,82c-.15-2.35-.47-4.69-.85-7-1.13-6.92-2.72-13.72-4.43-20.51-.7-2.77-1.22-6-2.85-8.35a.35.35,0,0,0-.64.17Z"/><path class="cls-2" d="M144,114.88c1.85,2,5.07,3.33,7.8,2.59a1.2,1.2,0,0,0-.32-2.34,23.27,23.27,0,0,1-3.33-.29,15.51,15.51,0,0,1-3.19-1.2.79.79,0,0,0-1,1.24Z"/><path class="cls-2" d="M137.88,165.24a23.22,23.22,0,0,0,1.83-4.6c1.36-3.78,2.56-7.63,3.75-11.46,2.74-8.77,5.28-17.61,7.84-26.43q.87-3,1.76-6.09a1.25,1.25,0,0,0-2.4-.66c-1.59,5.51-3.21,11-4.78,16.53-2.51,8.81-5,17.62-7.18,26.53a27.06,27.06,0,0,0-1.2,6.08.2.2,0,0,0,.38.1Z"/><path class="cls-2" d="M131.08,156.42a17.94,17.94,0,0,0,1.72-4c1.27-3.27,2.38-6.62,3.49-10,2.49-7.48,4.79-15,7.1-22.55.54-1.76,1.07-3.52,1.62-5.28.47-1.53-1.93-2.19-2.4-.66-3.78,12.3-7.72,24.57-10.86,37.05a20.89,20.89,0,0,0-1.06,5.28.21.21,0,0,0,.39.1Z"/><path class="cls-2" d="M109.22,152.05c2.34,4.13,8.14,6.84,12.7,5.1a7.48,7.48,0,0,0,5-6.15c.24-3.09-1.64-5.89-3.68-8-.9-.95-2.28.46-1.42,1.42,1.56,1.75,3.24,4.23,2.85,6.72-.38,2.33-2.75,4-5,4.28-4,.43-6.75-2.07-9.89-3.9a.41.41,0,0,0-.55.55Z"/><path class="cls-2" d="M138.37,172.8c1.32-.9,2.79-2.38,2.52-4.15a8.94,8.94,0,0,0-1.18-2.55c-.48-.93-1-1.86-1.39-2.81a20.5,20.5,0,0,1-1.1-3.2,3.35,3.35,0,0,0-1-2,10.14,10.14,0,0,0-2.42-1,5.22,5.22,0,0,1-2-1.5c-2.4-3-2.49-6.94-4.08-10.3-.74-1.56-1.4-3-3.22-3.24-.81-.13-2.7-.11-2.55,1.2a.71.71,0,0,0,1.39.19c-.25.63-.17.21.31.36.26.07.54,0,.8.13.76.27,1.08,1.17,1.44,1.87a21.54,21.54,0,0,1,1.53,4.48,15.85,15.85,0,0,0,3.26,6.93,8.15,8.15,0,0,0,2.77,1.86c.85.37,1.34.45,1.62,1.37s.37,1.69.66,2.51a20.21,20.21,0,0,0,2.15,4.22c.42.64,1.19,1.43,1.22,2.23a5.34,5.34,0,0,1-1.32,2.78c-.27.34.08,1,.51.66Z"/><path class="cls-2" d="M109.82,150.84c-1.52,0-1.67,1.87-1.37,3a7.86,7.86,0,0,0,2.74,3.79,42.85,42.85,0,0,0,5,3.45c1.61,1,4.08,2.17,4.19,4.34,0,.93-.4,1.73.25,2.53a12.73,12.73,0,0,0,2.92,2,27.29,27.29,0,0,1,3.49,2.54c.76.69,1.44,1.46,2.23,2.13,1.47,1.26,3.22,2.11,5.13,1.32a14,14,0,0,0,3-2.06,20.15,20.15,0,0,0,2.77-2.46c.76-.86-.5-2.12-1.27-1.26a19.39,19.39,0,0,1-4.72,3.84c-2.17,1.2-3.83-.85-5.26-2.23a28,28,0,0,0-4.45-3.35c-.56-.36-2.24-1.08-2.43-1.75s.16-1.51,0-2.22c-.7-2.83-4-4.23-6.28-5.57a28,28,0,0,1-4.08-2.74,8.77,8.77,0,0,1-1.57-1.65c-.26-.37-1.41-2.72-.22-2.87.49-.06.53-.8,0-.8Z"/><path class="cls-2" d="M122.38,142.25c-1.29.65-3.12,1.94-3.42,3.47a6.89,6.89,0,0,0,.31,2.85,3,3,0,0,0,1.62,2c.94.52,2.58,1.56,3.68,1.1a.66.66,0,0,0,.15-1.19c-1.33-.95-3.53-.62-4-2.46a5.37,5.37,0,0,1-.24-2.18c.25-1.17,1.58-2.31,2.16-3.37a.16.16,0,0,0-.22-.22Z"/><path class="cls-2" d="M108.91,152c.82-1.63,3.61-.25,4.74.3.74.36,3,2.31,1.16,2.67a.77.77,0,0,0,0,1.48,1.9,1.9,0,0,0,2.36-1.64,3.74,3.74,0,0,0-1.67-3.36c-1.7-1.23-6.67-3-7,.45a.19.19,0,0,0,.36.1Z"/><path class="cls-2" d="M150.12,90.71c-.78-.33-2.13-1.2-3-.79s-1,1.76-1.2,2.54-.89,2.11-.18,3,2.12.76,3,.81a.82.82,0,0,0,.22-1.61c-.28-.08-1.81-.16-2-.38.17.24.36-.7.35-.67l.28-1c.09-.33.18-.66.28-1l.09-.33c.11-.27.07-.25-.13,0,.72.06,1.46,0,2.18,0a.32.32,0,0,0,.08-.62Z"/><path class="cls-2" d="M150.17,92.69a13.38,13.38,0,0,0,3.57,1.39c1.33.37,2.69.87,4,1.13,1,.18,1.77-1.25.73-1.72a14.82,14.82,0,0,0-4.12-.91c-1.36-.2-2.7-.41-4.07-.48a.32.32,0,0,0-.16.59Z"/><path class="cls-2" d="M148.16,99.14c1.5,1.84,5.11,2.69,7.37,2.74,1.31,0,1.28-1.93,0-2a31.11,31.11,0,0,1-3.73-.32c-1.15-.22-2.25-.63-3.39-.83a.26.26,0,0,0-.25.43Z"/><path class="cls-2" d="M147.91,96c-1.4-.87-2.56.38-3.1,1.63-.43,1-.8,2-1.18,3a20.37,20.37,0,0,0-1.24,3.7c-.21,1.36,1,1.75,2.15,1.63a3.69,3.69,0,0,0,3.18-2.61.63.63,0,0,0-1.14-.48c-.61,1.08-1.36,1.16-2.42,1.48q-.33.77-.12.15l.24-.8.51-1.59c.52-1.67,1-5.36,3.07-5.74.19,0,.2-.3,0-.39Z"/><path class="cls-2" d="M76,69c-10.1,9-20.08,18.17-30.19,27.18q-6.2,5.5-12.36,11.06c-.22.2.1.52.32.32C45.9,96.72,58.18,86,70.13,74.93c2-1.88,4.09-3.76,6-5.79A.1.1,0,0,0,76,69Z"/><path class="cls-2" d="M49.26,114.15c7.85-7.9,15.32-16.17,23.27-24,7.13-7,14.47-13.84,21.88-20.56.25-.23-.12-.59-.37-.37C86.63,76,79.3,82.78,72.17,89.8c-7.91,7.8-15.88,15.74-23,24.29a0,0,0,1,0,.07.06Z"/><path class="cls-2" d="M132,86.47c-.14-2.49-.36-5.44-1.88-7.52a18.13,18.13,0,0,0-4.61-3.89,57,57,0,0,0-6.14-3.68,18.24,18.24,0,0,0-7.12-1.78c-12.32-1.08-24.72-1.53-37.09-1.5-6.14,0-12.28.15-18.41.49-2.88.16-5.77.36-8.64.65a16.09,16.09,0,0,0-6.44,1.67c-1.81,1-3.56,2.14-5.27,3.3a30.32,30.32,0,0,0-4.46,3.34A6.16,6.16,0,0,0,30.61,81a41.84,41.84,0,0,0-.44,5.59c-.09,4.07.11,8.15.39,12.22.22,3.2.2,7.08,3,9.23a32.57,32.57,0,0,0,7.44,3.9,79.81,79.81,0,0,0,8.55,2.8c2.7.8,5.51,1.26,8.06-.27,2.15-1.3,3.7-3.89,5.13-5.9,3.47-4.89,6.17-10.28,9.4-15.33a18,18,0,0,1,2.3-3.3,9.22,9.22,0,0,1,3-1.61,5.69,5.69,0,0,1,5.51.85C84.7,90.62,86,93,87.27,94.94c1.72,2.56,3.36,5.17,5,7.8,2,3.25,4,6.5,5.82,9.85a6.68,6.68,0,0,0,4.3,3.71,17.39,17.39,0,0,0,6-.25c3.87-.52,7.72-2.25,11.27-3.78a40,40,0,0,0,10-6,6.32,6.32,0,0,0,2.11-4.3,56.09,56.09,0,0,0,.44-7.22c0-2.76,0-5.53-.13-8.29,0-.91-1.47-.92-1.43,0a77,77,0,0,1-.29,15.33,5.49,5.49,0,0,1-2.48,4.07,32.84,32.84,0,0,1-4.21,2.91,67.8,67.8,0,0,1-12,5,24.72,24.72,0,0,1-4.74,1c-1.8.22-3.91.61-5.54-.43-1.33-.85-1.93-2.35-2.7-3.66-.94-1.63-1.9-3.25-2.86-4.87-2.84-4.75-5.7-9.51-8.91-14a15.17,15.17,0,0,0-3.4-4,8.16,8.16,0,0,0-4.7-1.36,10.87,10.87,0,0,0-5,2.18C72.11,90,71,92.34,69.89,94.11c-3,4.87-5.62,10-9.06,14.61-1.84,2.46-3.55,5.26-7,5.36-2.92.09-6.13-1.33-8.87-2.21a47.52,47.52,0,0,1-7.76-3.34,13.51,13.51,0,0,1-3.28-2,7,7,0,0,1-1.59-3.88,72.91,72.91,0,0,1-.59-8.35,76.28,76.28,0,0,1,.13-11.71c.12-1.14.2-2.8.92-3.77,1-1.29,2.87-2.27,4.18-3.16,1.65-1.13,3.33-2.22,5.06-3.2a16.33,16.33,0,0,1,6.85-1.76c5.48-.51,11-.79,16.47-1,11.88-.35,23.78-.15,35.64.48,2.71.14,5.43.31,8.14.52s5.36.16,7.82,1A34.35,34.35,0,0,1,123.21,75a33.82,33.82,0,0,1,5.46,3.89c2,1.87,1.75,5,1.89,7.56.06.91,1.48.92,1.43,0Z"/><path class="cls-2" d="M31.3,97.12a17.59,17.59,0,0,0,7.81,2.27,71.26,71.26,0,0,0,10.33.35,76.64,76.64,0,0,0,19.65-3.37c.63-.19.36-1.18-.27-1A75.29,75.29,0,0,1,50,98.74a76.67,76.67,0,0,1-9.22-.11c-3.15-.22-6.33-.56-9.19-2a.29.29,0,0,0-.29.5Z"/><path class="cls-2" d="M89.87,95.74c-.53.4-.1,1,.38,1.26,1.48.86,3.85,1,5.52,1.19a58.07,58.07,0,0,0,12.22.42,62.53,62.53,0,0,0,23.52-6.46c.68-.35.08-1.39-.61-1a59.72,59.72,0,0,1-20.34,6.23,63.66,63.66,0,0,1-10,.36c-1.72-.08-3.43-.23-5.14-.44-1-.12-2-.27-3-.43-.27,0-3.1-.34-2.53-1.07,0,0,0,0,0,0Z"/><path class="cls-2" d="M48.52,66.59c2.9-1.43,5-4.55,8.14-5.45A39,39,0,0,1,64.5,60c4.09-.32,8.22-.55,12.32-.52,9.64,0,19.27,0,28.74,2.14,1.78.41,3.64.79,5,2.1l2.61,2.57a15.13,15.13,0,0,0,1.23,1.18,3.92,3.92,0,0,0,.5.33c.34.22.23.2,0,0,.84.83,2.14-.46,1.29-1.29.15.15-.24-.4-.33-.51a14.38,14.38,0,0,0-1.1-1.11l-2.52-2.46a9,9,0,0,0-4-2.27c-5.74-1.74-12.06-2.3-18-2.6a170.88,170.88,0,0,0-24.47.57,55.61,55.61,0,0,0-9.07,1.35c-3.68,1-5.55,4.53-8.38,6.8-.16.14.05.37.22.28Z"/><path class="cls-2" d="M134.63,80c-1.14-4.71-6-7.57-9.77-10.09a29.6,29.6,0,0,0-6.64-3.53c-2.93-1-6.24-1-9.28-1.22A387.6,387.6,0,0,0,62.59,64c-3.69.14-7.38.34-11.07.62-3.41.26-7.24.23-10.47,1.49a26,26,0,0,0-4.76,2.77c-2,1.37-4.06,2.8-6,4.31-1.28,1-2.53,1.86-3.14,3.41a20.44,20.44,0,0,0-1.06,5.14,101.38,101.38,0,0,0-.43,13.61c.06,3.25-.07,6.74.72,9.92a10.48,10.48,0,0,0,4.91,6.71,63.13,63.13,0,0,0,9.44,4.56c5.81,2.35,14.13,5.66,19.86,1.47,2.61-1.91,4.62-4.94,6.41-7.59,1.94-2.88,3.61-5.93,5.35-8.93.88-1.5,1.77-3,2.72-4.46s1.94-3.61,3.54-4.22,2.63,1.11,3.31,2.11C84,98,86,101.26,88,104.49q2.73,4.52,5.41,9.05a31.75,31.75,0,0,0,1.75,2.92,10,10,0,0,0,6.28,3.88c4.33.8,8.57-.22,12.65-1.61A75,75,0,0,0,127.39,113c3.53-2,7.18-4.89,7.94-9.09.94-5.21.72-10.78.55-16.05A22.68,22.68,0,0,0,134.63,80c-.36-.93-2-.92-1.9.26.21,2.64.23,5.35.31,8s.09,5.28,0,7.92a42,42,0,0,1-.52,7.18,7.27,7.27,0,0,1-3.07,4.62A42.16,42.16,0,0,1,118.62,114c-3.52,1.43-7.5,3.14-11.2,3.62a14.47,14.47,0,0,1-7.19-.5,8.27,8.27,0,0,1-4-4.1c-1.22-2.2-2.57-4.35-3.87-6.52-2-3.39-4.06-6.78-6.17-10.12-1.46-2.32-3-5.53-5.81-6.4-3-.91-5.1,1.68-6.61,3.83-1.91,2.71-3.55,5.59-5.21,8.45A86.74,86.74,0,0,1,63,111.08c-1.87,2.5-3.81,5.18-7,5.82-3.4.67-7.07-.56-10.27-1.63a71.18,71.18,0,0,1-9.58-4c-2.6-1.32-5.57-2.61-6.57-5.59a16.71,16.71,0,0,1-.74-4.54c-.19-3.77-.26-7.55-.2-11.32s0-7.83,1.11-11.49c.38-1.33,1.13-1.8,2.33-2.74,1.77-1.38,3.61-2.68,5.47-3.92a28.15,28.15,0,0,1,4.55-2.76c2.72-1.15,6.85-1.13,10-1.37A354.79,354.79,0,0,1,95.33,67q5.58.26,11.14.64a71.37,71.37,0,0,1,9.69.89,20.88,20.88,0,0,1,6.37,2.87,63.82,63.82,0,0,1,6.2,4.22c1.84,1.43,3.31,2.57,4,4.86a1,1,0,0,0,1.87-.52Z"/><path class="cls-2" d="M50.16,118.25c-1.41,2.82,1.78,5.48,4,6.63,1.61.84,3.26.68,5,.67,2,0,4.05-.06,6.07-.1l2.44,0a6.37,6.37,0,0,0,.76,0c.37,0,1.28-.1.25-.09a1,1,0,0,0,0-2.09c.08,0,1,.14.22,0-.06,0-.11,0-.17-.06a5.94,5.94,0,0,0-.73,0c-.61,0-1.23,0-1.85,0l-5.38.07c-1.09,0-2.18,0-3.27.09a6.3,6.3,0,0,1-3.5-1,5.55,5.55,0,0,1-3-4,.46.46,0,0,0-.83-.11Z"/><path class="cls-2" d="M107.42,118.36a5.45,5.45,0,0,1-2.81,3.91,6.5,6.5,0,0,1-3.69,1.06c-1.09,0-2.19-.06-3.28-.09l-5.26-.07c-.63,0-1.26,0-1.9,0a7.13,7.13,0,0,0-.8,0c-.33,0-.82,0,0,0a1,1,0,0,0,0,2.09c-.89,0-.32,0,.1.07a4.47,4.47,0,0,0,.82,0l2.53,0c2,0,4,.09,6.07.1,1.75,0,3.4.16,5-.67,2.21-1.14,5.39-3.81,4-6.63a.46.46,0,0,0-.83.11Z"/><path class="cls-2" d="M73.76,96c-1.89,8-3.14,16.15-4.49,24.27-.46,2.8-1.88,6.88,2.17,7.31a73.85,73.85,0,0,0,10.52.15c2-.07,4.47.47,6.3-.56,2.16-1.2,1.55-3.68,1.28-5.7-.69-5.17-1.37-10.33-2.08-15.5q-.49-3.58-1-7.17a16.57,16.57,0,0,0-.32-2.21,4.18,4.18,0,0,0-.21-.53l-.14-.33c-.44-1,.16.8.08.19-.2-1.45-2.39-.83-2.2.6v.06l.11-.88a4.78,4.78,0,0,0-.06,2.73c.23,1.65.45,3.29.68,4.94q.91,6.78,1.88,13.56c.31,2.16.64,4.33.94,6.49.1.76.25,1.39-.56,1.68a8.21,8.21,0,0,1-2.8.13c-2.72-.07-5.45.16-8.17.11-.7,0-1.39,0-2.08,0a7.47,7.47,0,0,1-2.27-.13c-.77-.38-.29-1.75-.18-2.54.13-1,.27-2,.4-2.92,1.09-7.86,2.27-15.69,2.82-23.61,0-.37-.57-.45-.66-.09Z"/><path class="cls-2" d="M89.68,124.84H89.5a0,0,0,1,0,0,.09h.18a0,0,0,0,0,0-.09Z"/></g></g></svg>