<svg xmlns="http://www.w3.org/2000/svg" viewBox="0 0 193 193"><defs><style>.cls-1{fill:#c2a380;}.cls-2{fill:#fff;}</style></defs><g id="Layer_2" data-name="Layer 2"><g id="Layer_1-2" data-name="Layer 1"><circle class="cls-1" cx="96.5" cy="96.5" r="96.5"/><path class="cls-2" d="M26.4,76a6.92,6.92,0,0,0,.28-.88A11.57,11.57,0,0,1,34,66.05Q55.46,57.32,77,48.69a19.48,19.48,0,0,1,12-.82q30.22,7.23,60.44,14.54a30.23,30.23,0,0,1,10.33,4.28,11.79,11.79,0,0,1,5.47,9.36,7.53,7.53,0,0,0,.21,1v.27c-.43,2-.87,4-1.28,6a1.2,1.2,0,0,0,.1.64c.38,1,.78,1.89,1.18,2.84v3.26c-.74,2.47-1.61,4.86-4,6.44a11.78,11.78,0,0,1,3.59,6.38c.17.88.28,1.77.41,2.65v.27c-.43,2-.86,4-1.27,6a1.18,1.18,0,0,0,.07.64c.39.95.8,1.88,1.2,2.83v3.25c-.09.25-.2.5-.27.75a9,9,0,0,1-4,5.91q-3.75,2.28-7.59,4.45c-9.17,5.16-18.5,10.06-27.5,15.49-6.32,3.82-12.64,4.09-19.34,1.8L34.5,122.25c-4.38-1.51-6.81-4.71-7.81-9.12-.08-.34-.19-.68-.29-1v-8.42c.43-1.41.75-2.86,1.3-4.22a11.19,11.19,0,0,1,5.07-5.4,11.72,11.72,0,0,1-5.4-6.19c-.39-1-.65-2.13-1-3.19ZM160.71,87.3c-1,.59-1.89,1.21-2.87,1.75l-34.36,19.09c-1.15.64-2.28,1.3-3.47,1.86a5.14,5.14,0,0,1-5.6-.71c-3.88-3-3.11-9,1.45-11.55q18.2-10.11,36.41-20.17c.2-.11.39-.23.6-.32a2.19,2.19,0,0,1,3,.84A2.16,2.16,0,0,1,155,81c-.26.17-.55.31-.83.46l-35.69,19.78a8.49,8.49,0,0,0-1.17.68,2.75,2.75,0,0,0-.73,3.42c.87,1.32,1.83.64,2.8.1Q134.61,97,149.84,88.52c2.72-1.52,5.48-3,8.07-4.71a6.06,6.06,0,0,0,2.5-3c1.33-5.2.32-8.62-3.84-10.86a38.13,38.13,0,0,0-8.68-3.35c-19.69-4.83-39.43-9.49-59.14-14.27a17.58,17.58,0,0,0-11.14.81c-6.56,2.68-13.15,5.32-19.72,8C50.57,64,43.25,67,35.91,70,33.05,71.1,31.23,73.1,31,76.17A44.77,44.77,0,0,0,30.89,84a7.53,7.53,0,0,0,5.76,6.92c4.87,1.51,9.7,3.17,14.55,4.76q28.18,9.24,56.38,18.49c5.61,1.85,10.83,2,16.23-1.24,9.64-5.78,19.58-11.07,29.39-16.59,2-1.11,3.92-2.24,5.81-3.48A4.94,4.94,0,0,0,160.71,87.3Zm.07,28.67-18.64,10.37q-10.66,5.92-21.33,11.85a5.41,5.41,0,0,1-6-.08,6,6,0,0,1-2.82-5.93,7.29,7.29,0,0,1,4-5.94q18.18-10,36.3-20.08a5,5,0,0,1,1.09-.54,2.07,2.07,0,0,1,2.62,1.11,2,2,0,0,1-.65,2.65,8.45,8.45,0,0,1-1.16.69l-35.46,19.64c-.36.2-.72.38-1.07.6a2.76,2.76,0,0,0-1,3.55c.6,1,1.22,1,2.9.1q10.61-5.88,21.21-11.78c5.6-3.13,11.28-6.14,16.75-9.48,4.43-2.69,4.82-9.3,1.06-12.89a1.49,1.49,0,0,0-2.09-.25q-15.7,8.86-31.47,17.61a28,28,0,0,1-5.84,2.49c-3.45,1-7,.3-10.3-.66-5.16-1.49-10.25-3.21-15.36-4.88Q67,105.45,40.53,96.74a3.77,3.77,0,0,0-3.23.12c-.67.36-1.43.57-2.12.89a6.62,6.62,0,0,0-4.13,5.49,45.38,45.38,0,0,0-.16,8.24,7.42,7.42,0,0,0,5.62,6.89c2.24.7,4.44,1.54,6.66,2.3L108,142.86c5.54,1.9,10.68,1.69,16-1.44,10.57-6.27,21.41-12.08,32.12-18.1a30.93,30.93,0,0,0,3.08-2A5.18,5.18,0,0,0,160.78,116Z"/></g></g></svg>