<svg xmlns="http://www.w3.org/2000/svg" viewBox="0 0 193 193"><defs><style>.cls-1{fill:#c2a380;}.cls-2{fill:none;stroke:#fff;stroke-linecap:round;stroke-linejoin:round;stroke-width:3px;}</style></defs><g id="Layer_2" data-name="Layer 2"><g id="Layer_1-2" data-name="Layer 1"><circle class="cls-1" cx="96.5" cy="96.5" r="96.5"/><path class="cls-2" d="M107.13,44.94H87.89L74.24,66a17.47,17.47,0,0,0-2.82,9.52V87.24a5.85,5.85,0,0,0,5.85,5.84h40.49a5.85,5.85,0,0,0,5.84-5.84V75.56A17.55,17.55,0,0,0,120.79,66Z"/><path class="cls-2" d="M74.24,66a17.47,17.47,0,0,0-2.82,9.52V87.24a5.85,5.85,0,0,0,5.85,5.84h40.49a5.85,5.85,0,0,0,5.84-5.84V75.56A17.55,17.55,0,0,0,120.79,66l-4.3-6.65h-38Z"/><rect class="cls-2" x="71.42" y="134.14" width="52.18" height="27.37" rx="5"/><rect class="cls-2" x="71.42" y="106.77" width="52.18" height="27.37" rx="5"/><rect class="cls-2" x="71.42" y="93.08" width="52.18" height="13.69" rx="5"/><rect class="cls-2" x="82.6" y="29.23" width="29.83" height="15.7" rx="3"/><line class="cls-2" x1="89.69" y1="29.23" x2="89.69" y2="44.94"/><line class="cls-2" x1="97.51" y1="29.23" x2="97.51" y2="44.94"/><line class="cls-2" x1="105.34" y1="29.23" x2="105.34" y2="44.94"/></g></g></svg>